<?xml version="1.0" encoding="utf-8"?>
<!-- Generator: Adobe Illustrator 24.3.0, SVG Export Plug-In . SVG Version: 6.00 Build 0)  -->
<svg version="1.1" id="Layer_1" xmlns="http://www.w3.org/2000/svg" xmlns:xlink="http://www.w3.org/1999/xlink" x="0px" y="0px"
	 viewBox="0 0 611 1080" style="enable-background:new 0 0 611 1080;" xml:space="preserve">
<g>
	<g>
		<path d="M81.35,289.83c0-134.22,92.71-226.23,213.08-226.23c123.15,0,194.4,68.49,202.02,179.88l-57.42,3.46
			c-4.84-79.56-56.04-132.14-143.9-132.14c-89.25,0-152.2,67.8-152.2,175.73c0,107.93,63.65,175.03,157.74,175.03
			c81.64,0,134.22-51.2,141.83-125.91H309.66V292.6h187.49v215.16h-54.65v-77.49c-19.37,55.35-80.94,85.79-148.74,85.79
			C170.6,516.06,81.35,425.43,81.35,289.83z"/>
		<path d="M81.35,804.71c0-134.22,92.71-226.23,213.08-226.23c123.15,0,194.4,68.49,202.02,179.88l-57.42,3.46
			c-4.84-79.56-56.04-132.14-143.9-132.14c-89.25,0-152.2,67.8-152.2,175.73c0,107.93,63.65,175.03,157.74,175.03
			c81.64,0,134.22-51.2,141.83-125.91H309.66v-47.04h187.49v215.16h-54.65v-77.49c-19.37,55.35-80.94,85.79-148.74,85.79
			C170.6,1030.94,81.35,940.31,81.35,804.71z"/>
	</g>
</g>
</svg>
